<svg width="16" height="16" viewBox="0 0 16 16" fill="none" xmlns="http://www.w3.org/2000/svg">
<path fill-rule="evenodd" clip-rule="evenodd" d="M4 1C4 0.447715 4.44772 0 5 0H11C11.5523 0 12 0.447715 12 1V3H15C15.5523 3 16 3.44772 16 4C16 4.55228 15.5523 5 15 5H14V15C14 15.5523 13.5523 16 13 16H3C2.44772 16 2 15.5523 2 15V5H1C0.447715 5 0 4.55228 0 4C0 3.44772 0.447715 3 1 3H4V1ZM6 3V2H10V3H6ZM4 5V14H12V5H4ZM6 7C6.55228 7 7 7.44772 7 8V11C7 11.5523 6.55228 12 6 12C5.44772 12 5 11.5523 5 11V8C5 7.44772 5.44772 7 6 7ZM10 7C10.5523 7 11 7.44772 11 8V11C11 11.5523 10.5523 12 10 12C9.44771 12 9 11.5523 9 11V8C9 7.44772 9.44771 7 10 7Z" fill="#666E77"/>
</svg>
