<svg width="40" height="40" viewBox="0 0 40 40" fill="none" xmlns="http://www.w3.org/2000/svg">
<rect width="40" height="40" rx="8" fill="#4537DF" fill-opacity="0.16"/>
<path fill-rule="evenodd" clip-rule="evenodd" d="M12 13C12 12.4477 12.4477 12 13 12H25C25.2652 12 25.5196 12.1054 25.7071 12.2929L27.7071 14.2929C27.8946 14.4804 28 14.7348 28 15V27C28 27.5523 27.5523 28 27 28H13C12.4477 28 12 27.5523 12 27V13ZM14 14V26H15V22C15 21.4477 15.4477 21 16 21H24C24.5523 21 25 21.4477 25 22V26H26V15.4142L24.5858 14H23V16C23 16.5523 22.5523 17 22 17H18C17.4477 17 17 16.5523 17 16V14H14ZM19 14V15H21V14H19ZM23 26V23H17V26H23Z" fill="#4537DF"/>
</svg>
