<svg width="16" height="15" viewBox="0 0 16 15" fill="none" xmlns="http://www.w3.org/2000/svg">
<path fill-rule="evenodd" clip-rule="evenodd" d="M8.00007 0C8.43068 0 8.81294 0.275658 8.94891 0.684238L10.3737 4.96556H15.0001C15.4354 4.96556 15.8207 5.24717 15.9529 5.66194C16.085 6.0767 15.9337 6.52932 15.5786 6.78119L11.8566 9.4215L13.2751 13.6842C13.4117 14.0946 13.269 14.5462 12.9215 14.8036C12.574 15.061 12.1004 15.0658 11.7477 14.8156L8.00007 12.1572L4.25241 14.8156C3.8997 15.0658 3.42611 15.061 3.07862 14.8036C2.73112 14.5462 2.58844 14.0946 2.72499 13.6842L4.14358 9.4215L0.421493 6.78119C0.0664377 6.52932 -0.084893 6.0767 0.0472785 5.66194C0.17945 5.24717 0.564755 4.96556 1.00007 4.96556H5.62646L7.05123 0.684238C7.1872 0.275658 7.56946 0 8.00007 0ZM8.00007 4.16695L7.29643 6.28132C7.16046 6.6899 6.77821 6.96556 6.34759 6.96556H4.13816L5.90489 8.21881C6.26379 8.47341 6.41409 8.93269 6.27515 9.3502L5.58753 11.4164L7.42149 10.1155C7.76804 9.86966 8.2321 9.86966 8.57865 10.1155L10.4126 11.4164L9.72499 9.3502C9.58605 8.93269 9.73635 8.47341 10.0953 8.21881L11.862 6.96556H9.65255C9.22193 6.96556 8.83968 6.6899 8.70371 6.28132L8.00007 4.16695Z" fill="#666E77"/>
</svg>
