<svg width="40" height="40" viewBox="0 0 40 40" fill="none" xmlns="http://www.w3.org/2000/svg">
<rect width="40" height="40" rx="8" fill="#4537DF"/>
<g clip-path="url(#clip0_247_87240)">
<path fill-rule="evenodd" clip-rule="evenodd" d="M13.1254 12.5152C13.3016 12.1973 13.6365 12 14 12H26C26.3635 12 26.6984 12.1973 26.8746 12.5152C27.0509 12.8332 27.0407 13.2217 26.848 13.53L22 21.2868V25C22 25.2652 21.8946 25.5196 21.7071 25.7071L19.7071 27.7071C19.4211 27.9931 18.991 28.0787 18.6173 27.9239C18.2436 27.7691 18 27.4045 18 27V21.2868L13.152 13.53C12.9593 13.2217 12.9491 12.8332 13.1254 12.5152ZM15.8042 14L19.848 20.47C19.9473 20.6289 20 20.8126 20 21C20 20.8126 20.0527 20.6289 20.152 20.47L24.1958 14H15.8042Z" fill="white"/>
</g>
<defs>
<clipPath id="clip0_247_87240">
<rect width="16" height="16" fill="white" transform="translate(12 12)"/>
</clipPath>
</defs>
</svg>
