<svg width="16" height="16" viewBox="0 0 16 16" fill="none" xmlns="http://www.w3.org/2000/svg">
<path fill-rule="evenodd" clip-rule="evenodd" d="M13.0003 0H15.0003C15.5526 0 16.0003 0.447715 16.0003 1V10C16.0003 10.5523 15.5526 11 15.0003 11C14.448 11 14.0003 10.5523 14.0003 10V7H13.5003L10.8003 10.6C10.4689 11.0418 9.84213 11.1314 9.4003 10.8C8.95848 10.4686 8.86893 9.84183 9.2003 9.4L11.2518 6.66469C11.2066 6.64757 11.1612 6.62955 11.1157 6.61058C10.6381 6.41159 10.1049 6.09093 9.68818 5.57001C9.2589 5.03341 9.0003 4.34198 9.0003 3.5C9.0003 2.65802 9.2589 1.96659 9.68818 1.42999C10.1049 0.909071 10.6381 0.588408 11.1157 0.389423C11.5942 0.19005 12.0587 0.0951343 12.394 0.0485702C12.5642 0.0249287 12.7078 0.0128525 12.812 0.00664967C12.8642 0.00353903 12.907 0.00187939 12.9388 0.000995934C12.9548 0.000553846 12.968 0.000304997 12.9783 0.000166595L12.9915 3.14116e-05L12.9965 6.55651e-06L12.9985 1.49012e-06L13.0003 0C13.0003 0 13.0003 0 13.0003 1V0ZM13.0045 2L12.9944 2.00022C12.9822 2.00056 12.9606 2.00134 12.9308 2.00312C12.871 2.00668 12.7802 2.01413 12.6691 2.02955C12.4419 2.06112 12.1564 2.12245 11.8849 2.23558C11.6125 2.34909 11.3957 2.49718 11.2499 2.67938C11.1167 2.84591 11.0003 3.09198 11.0003 3.5C11.0003 3.90802 11.1167 4.15409 11.2499 4.32062C11.3957 4.50282 11.6125 4.65091 11.8849 4.76442C12.1564 4.87755 12.4419 4.93888 12.6691 4.97045C12.7802 4.98587 12.871 4.99332 12.9308 4.99688C12.9606 4.99866 12.9822 4.99944 12.9944 4.99978L13.0045 5H14.0003V2H13.0045Z" fill="#4537DF"/>
<path fill-rule="evenodd" clip-rule="evenodd" d="M5.00022 6C5.37899 6 5.72525 6.214 5.89465 6.55279L9.89465 14.5528C10.1416 15.0468 9.94141 15.6474 9.44743 15.8944C8.95345 16.1414 8.35278 15.9412 8.10579 15.4472L7.38218 14H2.61825L1.89465 15.4472C1.64766 15.9412 1.04698 16.1414 0.553005 15.8944C0.059027 15.6474 -0.141197 15.0468 0.105792 14.5528L4.10579 6.55279C4.27518 6.214 4.62145 6 5.00022 6ZM3.61825 12H6.38218L5.00022 9.23607L3.61825 12Z" fill="#4537DF"/>
</svg>
