<svg width="40" height="40" viewBox="0 0 40 40" fill="none" xmlns="http://www.w3.org/2000/svg">
<rect width="40" height="40" rx="8" fill="#4537DF" fill-opacity="0.16"/>
<path fill-rule="evenodd" clip-rule="evenodd" d="M12 14C12 13.4477 12.4477 13 13 13H27C27.5523 13 28 13.4477 28 14C28 14.5523 27.5523 15 27 15H13C12.4477 15 12 14.5523 12 14Z" fill="#4537DF"/>
<path fill-rule="evenodd" clip-rule="evenodd" d="M12 18C12 17.4477 12.4477 17 13 17H27C27.5523 17 28 17.4477 28 18C28 18.5523 27.5523 19 27 19H13C12.4477 19 12 18.5523 12 18Z" fill="#4537DF"/>
<path fill-rule="evenodd" clip-rule="evenodd" d="M12 22C12 21.4477 12.4477 21 13 21H27C27.5523 21 28 21.4477 28 22C28 22.5523 27.5523 23 27 23H13C12.4477 23 12 22.5523 12 22Z" fill="#4537DF"/>
<path fill-rule="evenodd" clip-rule="evenodd" d="M12 26C12 25.4477 12.4477 25 13 25H27C27.5523 25 28 25.4477 28 26C28 26.5523 27.5523 27 27 27H13C12.4477 27 12 26.5523 12 26Z" fill="#4537DF"/>
</svg>
