<svg width="40" height="40" viewBox="0 0 40 40" fill="none" xmlns="http://www.w3.org/2000/svg">
<rect width="40" height="40" rx="8" fill="#4537DF" fill-opacity="0.16"/>
<g clip-path="url(#clip0_247_87255)">
<path fill-rule="evenodd" clip-rule="evenodd" d="M23.2929 12.2929C23.6834 11.9024 24.3166 11.9024 24.7071 12.2929L27.7071 15.2929C28.0976 15.6834 28.0976 16.3166 27.7071 16.7071L18.4142 26H22C22.5523 26 23 26.4477 23 27C23 27.5523 22.5523 28 22 28H13C12.4477 28 12 27.5523 12 27V24C12 23.7348 12.1054 23.4804 12.2929 23.2929L23.2929 12.2929ZM15.5858 26L23.5858 18L22 16.4142L14 24.4142V26H15.5858ZM23.4142 15L25 16.5858L25.5858 16L24 14.4142L23.4142 15ZM27 28H25C24.4477 28 24 27.5523 24 27C24 26.4477 24.4477 26 25 26H27C27.5523 26 28 26.4477 28 27C28 27.5523 27.5523 28 27 28Z" fill="#4537DF"/>
</g>
<defs>
<clipPath id="clip0_247_87255">
<rect width="16" height="16" fill="white" transform="translate(12 12)"/>
</clipPath>
</defs>
</svg>
