<svg width="40" height="40" viewBox="0 0 40 40" fill="none" xmlns="http://www.w3.org/2000/svg">
<g clip-path="url(#clip0_247_87274)">
<path fill-rule="evenodd" clip-rule="evenodd" d="M24 12C24.5523 12 25 12.4477 25 13V18.5858L26.2929 17.2929C26.6834 16.9024 27.3166 16.9024 27.7071 17.2929C28.0976 17.6834 28.0976 18.3166 27.7071 18.7071L24.7071 21.7071C24.3166 22.0976 23.6834 22.0976 23.2929 21.7071L20.2929 18.7071C19.9024 18.3166 19.9024 17.6834 20.2929 17.2929C20.6834 16.9024 21.3166 16.9024 21.7071 17.2929L23 18.5858V13C23 12.4477 23.4477 12 24 12ZM16 18C16.2652 18 16.5196 18.1054 16.7071 18.2929L19.7071 21.2929C20.0976 21.6834 20.0976 22.3166 19.7071 22.7071C19.3166 23.0976 18.6834 23.0976 18.2929 22.7071L17 21.4142L17 27C17 27.5523 16.5523 28 16 28C15.4477 28 15 27.5523 15 27V21.4142L13.7071 22.7071C13.3166 23.0976 12.6834 23.0976 12.2929 22.7071C11.9024 22.3166 11.9024 21.6834 12.2929 21.2929L15.2929 18.2929C15.4804 18.1054 15.7348 18 16 18Z" fill="#4537DF"/>
</g>
<defs>
<clipPath id="clip0_247_87274">
<rect width="16" height="16" fill="white" transform="translate(12 12)"/>
</clipPath>
</defs>
</svg>
