<svg width="24" height="24" viewBox="0 0 24 24" fill="none" xmlns="http://www.w3.org/2000/svg">
<path d="M19.8455 23.9807C18.8709 23.945 18.1875 23.3088 18.1243 22.405C18.0588 21.4678 18 19.9456 18 17.5C18 15.0544 18.0588 13.5322 18.1243 12.595C18.1875 11.6912 18.8709 11.055 19.8455 11.0193C20.1671 11.0075 20.549 11 21 11C21.451 11 21.8329 11.0075 22.1545 11.0193C23.1291 11.055 23.8125 11.6912 23.8757 12.595C23.9412 13.5322 24 15.0544 24 17.5C24 19.9456 23.9412 21.4678 23.8757 22.405C23.8125 23.3088 23.1291 23.945 22.1545 23.9807C21.8329 23.9925 21.451 24 21 24C20.549 24 20.1671 23.9925 19.8455 23.9807Z" fill="#929EAB" fill-opacity="0.32"/>
<path d="M10.7766 23.9832C9.8427 23.9548 9.162 23.3419 9.0949 22.41C9.0422 21.6775 9 20.5936 9 19C9 17.4064 9.0422 16.3225 9.0949 15.59C9.162 14.6581 9.8427 14.0453 10.7766 14.0169C11.1122 14.0067 11.5163 14 12 14C12.4837 14 12.8878 14.0067 13.2234 14.0169C14.1573 14.0453 14.838 14.6581 14.9051 15.59C14.9578 16.3225 15 17.4064 15 19C15 20.5936 14.9578 21.6775 14.9051 22.41C14.838 23.3419 14.1573 23.9548 13.2234 23.9832C12.8878 23.9934 12.4837 24 12 24C11.5163 24 11.1122 23.9934 10.7766 23.9832Z" fill="#929EAB" fill-opacity="0.32"/>
<path d="M1.60946 23.9843C0.772915 23.9631 0.13928 23.4599 0.070895 22.6259C0.029935 22.1264 0 21.4398 0 20.5C0 19.5602 0.029935 18.8736 0.070895 18.3741C0.13928 17.5401 0.772915 17.0369 1.60946 17.0157C1.97545 17.0064 2.43306 17 3 17C3.56694 17 4.02455 17.0064 4.39055 17.0157C5.2271 17.0369 5.8607 17.5401 5.9291 18.3741C5.97005 18.8736 6 19.5602 6 20.5C6 21.4398 5.97005 22.1264 5.9291 22.6259C5.8607 23.4599 5.2271 23.9631 4.39055 23.9843C4.02455 23.9936 3.56694 24 3 24C2.43306 24 1.97545 23.9936 1.60946 23.9843Z" fill="#929EAB" fill-opacity="0.32"/>
<path d="M23.9402 6.41037C23.8782 7.66237 22.7071 8.13278 21.7988 7.2853C21.3857 6.89992 20.8913 6.42552 20.303 5.84295C18.9744 7.07252 16.9136 8.98958 14.4568 11.3094C13.8116 11.9187 12.7637 11.8506 12.2001 11.1628L12.1996 11.1623C11.0935 9.81648 9.97913 8.47615 8.82595 7.17175C7.47841 8.17783 5.05964 10.0951 2.65928 12.536C2.05094 13.1547 1.06461 13.1547 0.45626 12.536C-0.152087 11.9174 -0.152087 10.9144 0.45626 10.2958C2.81113 7.90119 5.39487 5.65495 8.16589 3.765L8.17019 3.76206C8.17125 3.76135 8.17094 3.76154 8.17094 3.76154C8.78881 3.34269 9.6115 3.42553 10.1366 3.95947C11.3429 5.18613 12.4329 6.53539 13.5361 7.85766C15.4118 6.09362 16.9919 4.62386 18.1 3.59805C17.5971 3.07043 17.1806 2.62055 16.8363 2.239C16.0027 1.31515 16.4655 0.12393 17.6969 0.0609087C19.2683 -0.0195059 20.881 -0.0668257 22.4332 0.228277C23.1321 0.361157 23.6448 0.882575 23.7754 1.59333C24.0656 3.172 24.0192 4.8122 23.9402 6.41037Z" fill="#929EAB"/>
</svg>
