<svg width="22" height="24" viewBox="0 0 22 24" fill="none" xmlns="http://www.w3.org/2000/svg">
<path d="M21.8401 6.76455C21.8401 6.76455 21.332 5.43667 18.8755 3.00168C16.4189 0.566697 15.0825 0.0600035 15.0825 0.0600035C13.94 0.0233916 12.5899 0 11 0C6.74147 0 4.20377 0.16419 2.76571 0.316548C1.70031 0.42942 0.878796 1.13792 0.679317 2.1716C0.368806 3.78066 0 6.7887 0 12C0 17.2113 0.368806 20.2193 0.679317 21.8284C0.878796 22.8621 1.70031 23.5706 2.76571 23.6834C4.20377 23.8358 6.74147 24 11 24C15.2585 24 17.7962 23.8358 19.2343 23.6834C20.2997 23.5706 21.1212 22.8621 21.3207 21.8284C21.6312 20.2193 22 17.2113 22 12C22 9.92155 21.9303 8.19308 21.8401 6.76455Z" fill="#929EAB" fill-opacity="0.32"/>
<path d="M6 16.0001C6 16.5524 6.4477 17.0001 7 17.0001H14C14.5523 17.0001 15 16.5524 15 16.0001C15 15.4478 14.5523 15.0001 14 15.0001H7C6.4477 15.0001 6 15.4478 6 16.0001Z" fill="#929EAB"/>
<path d="M6 11.0001C6 11.5524 6.4477 12.0001 7 12.0001H11C11.5523 12.0001 12 11.5524 12 11.0001C12 10.4478 11.5523 10.0001 11 10.0001H7C6.4477 10.0001 6 10.4478 6 11.0001Z" fill="#929EAB"/>
<path d="M21.84 6.76461C20.5 7.00006 18.4168 7.18398 16.8091 6.69713C16.1314 6.49189 15.603 5.96858 15.3742 5.30378C14.87 4.50006 15 2.00006 15.0825 0.0600586C15.0825 0.0600586 16.4189 0.566751 18.8755 3.00173C21.332 5.43673 21.84 6.76461 21.84 6.76461Z" fill="#929EAB"/>
</svg>
