<svg width="24" height="24" viewBox="0 0 24 24" fill="none" xmlns="http://www.w3.org/2000/svg">
<path d="M0.21444 20.7286C0.370356 20.3514 0.82353 20.1799 1.30152 20.1573C2.54294 20.0986 5.58204 20 12 20C18.418 20 21.4571 20.0986 22.6985 20.1573C23.1764 20.1799 23.6296 20.3514 23.7856 20.7286C23.9011 21.0081 24 21.4175 24 22C24 22.5825 23.9011 22.9919 23.7856 23.2714C23.6296 23.6486 23.1764 23.8201 22.6985 23.8427C21.4571 23.9014 18.418 24 12 24C5.58204 24 2.54294 23.9014 1.30152 23.8427C0.82353 23.8201 0.370356 23.6486 0.21444 23.2714C0.098916 22.9919 0 22.5825 0 22C0 21.4175 0.098916 21.0081 0.21444 20.7286Z" fill="#929EAB" fill-opacity="0.32"/>
<path d="M12 11C17.6446 11 20.9728 10.8713 22.6417 10.7784C23.414 10.7353 24 10.0628 24 9.24891V7.77319C24 7.20541 23.8261 6.64835 23.4439 6.24748C21.202 3.89603 16.0496 0.865483 12.558 0.0635541C12.1891 -0.0211847 11.8109 -0.0211847 11.442 0.0635541C7.95042 0.865483 2.79805 3.89603 0.556074 6.24748C0.173874 6.64835 0 7.20541 0 7.77319V9.24891C0 10.0628 0.585954 10.7353 1.35834 10.7784C3.02725 10.8713 6.35538 11 12 11Z" fill="#929EAB" fill-opacity="0.32"/>
<path d="M13.9676 10.9945C13.3456 10.9981 12.6901 11 12 11C11.3099 11 10.6544 10.9981 10.0324 10.9945C10.0146 12.0388 10 13.5485 10 15.6905C10 17.5836 10.0114 18.9828 10.0263 20.0033C10.6457 20.0012 11.3029 20 12 20C12.6971 20 13.3543 20.0012 13.9737 20.0033C13.9886 18.9828 14 17.5836 14 15.6905C14 13.5485 13.9854 12.0388 13.9676 10.9945Z" fill="#929EAB"/>
<path d="M17.0358 10.9609C17.0165 11.9766 17 13.4909 17 15.6981C17 17.6252 17.0126 19.0241 17.0286 20.0242C18.7306 20.0423 20.0156 20.0684 20.9702 20.0951C20.9868 19.0906 21 17.6712 21 15.6981C21 13.4139 20.9823 11.8718 20.9622 10.8564C19.9477 10.8957 18.6521 10.9338 17.0358 10.9609Z" fill="#929EAB"/>
<path d="M6.97139 20.0242C5.26936 20.0423 3.98437 20.0684 3.02977 20.0951C3.0132 19.0906 3 17.6712 3 15.6981C3 13.4139 3.01769 11.8718 3.03782 10.8564C4.05232 10.8957 5.34795 10.9338 6.96421 10.9609C6.98349 11.9766 7 13.4909 7 15.6981C7 17.6252 6.98742 19.0241 6.97139 20.0242Z" fill="#929EAB"/>
<path d="M12 9C13.6569 9 15 7.65685 15 6C15 4.34315 13.6569 3 12 3C10.3431 3 9 4.34315 9 6C9 7.65685 10.3431 9 12 9Z" fill="#929EAB"/>
</svg>
