<svg width="32" height="32" viewBox="0 0 32 32" fill="none" xmlns="http://www.w3.org/2000/svg">
<path d="M16.7128 24.0812V19.9312C18.3502 19.6348 19.6489 18.3502 19.9312 16.7128H24.0812C24.0388 16.487 24.0106 16.247 24.0106 16.0071C24.0106 15.7671 24.0388 15.5271 24.0812 15.3013H19.9312C19.8324 14.7225 19.6065 14.1861 19.2819 13.7203L25.7186 7.28363C26.3679 7.73533 27.1442 8.00353 28.0053 8.00353C30.2214 8.00353 32 6.21085 32 4.00882C32 1.80679 30.2214 0 28.0053 0C25.7891 0 24.0106 1.79268 24.0106 3.99471C24.0106 4.84164 24.2788 5.63211 24.7305 6.28143L18.2938 12.7181C17.828 12.3935 17.2916 12.1676 16.7128 12.0688V7.91884C18.5902 7.58006 20.0018 5.95677 20.0018 3.99471C20.0018 1.79268 18.2091 0 16.0071 0C13.805 0 12.0124 1.79268 12.0124 3.99471C12.0124 5.95677 13.438 7.59418 15.3013 7.91884V12.0688C14.7225 12.1676 14.1861 12.3935 13.7203 12.7181L7.28363 6.28143C7.73533 5.63211 8.00353 4.85576 8.00353 3.99471C8.00353 1.79268 6.21085 0 3.99471 0C1.77856 0 0 1.79268 0 3.99471C0 6.19674 1.79268 7.98941 3.99471 7.98941C4.84164 7.98941 5.63211 7.72122 6.28143 7.26952L12.7181 13.7062C12.2664 14.3555 11.9982 15.146 11.9982 15.9929C11.9982 16.8399 12.2664 17.6303 12.7181 18.2797L6.28143 24.7164C6.67666 24.9846 7.00132 25.3233 7.28363 25.7186L13.7203 19.2819C14.1861 19.6065 14.7225 19.8324 15.3013 19.9312V24.0812C13.4239 24.4199 12.0124 26.0432 12.0124 28.0053C12.0124 30.2214 13.805 32 16.0071 32C18.2091 32 20.0018 30.2073 20.0018 28.0053C20.0018 26.0432 18.5761 24.4058 16.7128 24.0812Z" fill="#4537DF"/>
<path d="M7.99294 28.0056C7.99294 30.2216 6.19947 32 3.99647 32C1.79347 32 0 30.2075 0 28.0056C0 25.8038 1.79347 24.0113 3.99647 24.0113C6.19947 24.0113 7.99294 25.8038 7.99294 28.0056ZM28.0035 12C25.7864 12 24.0071 13.7925 24.0071 15.9944C24.0071 18.1962 25.8005 19.9887 28.0035 19.9887C30.2065 19.9887 32 18.1962 32 15.9944C32 13.7925 30.2065 12 28.0035 12Z" fill="#E38F1B"/>
</svg>
