<svg width="24" height="20" viewBox="0 0 24 20" fill="none" xmlns="http://www.w3.org/2000/svg">
<path d="M23.017 15.833C22.6765 16.5755 21.867 17 21.0103 17H2.98969C2.13297 17 1.32346 16.5755 0.98301 15.833C0.350544 14.4537 0 12.9322 0 11.3333C0 5.0741 5.37258 0 12 0C18.6274 0 24 5.0741 24 11.3333C24 12.9322 23.6495 14.4537 23.017 15.833Z" fill="#929EAB" fill-opacity="0.32"/>
<path d="M13.9032 5.54164C14.3726 4.60975 15.6759 4.95736 15.6143 5.99803C15.4928 8.05221 15.2956 10.6415 14.9818 13.1822C15.615 13.906 16 14.8615 16 15.9091C16 18.1684 14.2091 20 12 20C9.79086 20 8 18.1684 8 15.9091C8 14.0457 9.21818 12.4733 10.8845 11.9794C11.8784 9.65627 12.9896 7.35537 13.9032 5.54164Z" fill="#929EAB"/>
</svg>
