<svg width="24" height="20" viewBox="0 0 24 20" fill="none" xmlns="http://www.w3.org/2000/svg">
<path d="M24 7.99999C24 10.8109 23.9122 13.0134 23.8315 14.4428C23.7766 15.4159 22.6879 16.1145 21.5726 15.9844C19.7437 15.771 16.6549 15.4667 12 15.4667C7.34508 15.4667 4.25634 15.771 2.42742 15.9844C1.31209 16.1145 0.223368 15.4159 0.168474 14.4428C0.0878519 13.0134 0 10.8109 0 7.99999C0 5.18908 0.0878519 2.98658 0.168474 1.55723C0.223368 0.584098 1.31209 -0.114508 2.42742 0.0155993C4.25634 0.228951 7.34508 0.533333 12 0.533333C16.6549 0.533333 19.7437 0.228951 21.5726 0.0155993C22.6879 -0.114508 23.7766 0.584098 23.8315 1.55723C23.9122 2.98658 24 5.18908 24 7.99999Z" fill="#929EAB" fill-opacity="0.32"/>
<path d="M5.54266 15.6876C5.43083 16.0048 5.24663 16.3683 5.11972 16.6187C5.06857 16.7197 5.02672 16.8022 5.00269 16.856C4.64208 17.6624 4.23154 18.5806 4.02668 19.2617C3.92811 19.5894 4.11165 19.9354 4.42906 19.9686C4.9481 20.0232 5.50169 19.9976 5.92593 19.9583C6.38774 19.9155 6.79354 19.6301 7.0449 19.2092C7.44826 18.534 7.85274 17.7059 8.22365 16.9466C8.25408 16.8843 8.28866 16.8029 8.32861 16.709C8.47135 16.3732 8.68266 15.8761 9.01804 15.5105C7.69553 15.5506 6.54091 15.6146 5.54266 15.6876Z" fill="#929EAB"/>
<path d="M14.982 15.5105C15.3173 15.8761 15.5286 16.3732 15.6714 16.709C15.7113 16.8029 15.7459 16.8843 15.7764 16.9466C16.1473 17.7059 16.5517 18.534 16.9551 19.2092C17.2065 19.6301 17.6123 19.9155 18.0741 19.9583C18.4983 19.9976 19.0519 20.0232 19.5709 19.9686C19.8883 19.9354 20.0719 19.5894 19.9733 19.2617C19.7685 18.5806 19.3579 17.6624 18.9973 16.856C18.9733 16.8022 18.9314 16.7197 18.8803 16.6187C18.7534 16.3683 18.5692 16.0048 18.4573 15.6876C17.4591 15.6146 16.3045 15.5506 14.982 15.5105Z" fill="#929EAB"/>
</svg>
