<svg width="16" height="16" viewBox="0 0 16 16" fill="none" xmlns="http://www.w3.org/2000/svg">
<g filter="url(#filter0_d_201_4538)">
<path d="M6.00021 1C6.00021 0.447715 5.5525 0 5.00021 0C4.44793 0 4.00021 0.447715 4.00021 1V2H1.00021C0.447929 2 0.000213622 2.44772 0.000213622 3C0.000213622 3.55228 0.447929 4 1.00021 4H7.67774C7.63315 4.10028 7.58305 4.20641 7.52689 4.31799C7.21831 4.93109 6.72994 5.70204 5.97713 6.5627L4.70732 5.29289C4.3168 4.90237 3.68363 4.90237 3.29311 5.29289C2.90258 5.68342 2.90258 6.31658 3.29311 6.70711L4.55566 7.96966C3.67657 8.7091 2.82714 9.19897 2.15494 9.51489C1.7256 9.71667 1.37035 9.84663 1.12882 9.92473C1.00816 9.96374 0.916224 9.9897 0.85803 10.0051C0.828945 10.0129 0.808331 10.0179 0.796816 10.0207L0.786523 10.0231C0.248703 10.1407 -0.0931848 10.6712 0.0224928 11.2099C0.138439 11.7499 0.670169 12.0937 1.21015 11.9777L1.21165 11.9774L1.21338 11.977L1.21756 11.9761L1.22871 11.9736L1.262 11.9658C1.28899 11.9594 1.32549 11.9503 1.37084 11.9383C1.46151 11.9142 1.58771 11.8783 1.74415 11.8277C2.05682 11.7266 2.49161 11.5665 3.00563 11.325C3.84355 10.9311 4.89675 10.3185 5.97435 9.38835L7.29311 10.7071C7.68363 11.0976 8.3168 11.0976 8.70732 10.7071C9.09784 10.3166 9.09784 9.68342 8.70732 9.29289L7.39411 7.97968C8.30301 6.95777 8.9136 6.01141 9.31336 5.21717C9.78592 4.2783 9.9984 3.48117 10.0002 3.00602C10.0002 3.00402 10.0002 3.00201 10.0002 3C10.0002 2.44772 9.5525 2 9.00021 2H6.00021V1Z" fill="#25282B"/>
<path fill-rule="evenodd" clip-rule="evenodd" d="M12.8946 8.55279C12.7253 8.214 12.379 8 12.0002 8C11.6214 8 11.2752 8.214 11.1058 8.55279L8.10579 14.5528C7.8588 15.0468 8.05903 15.6474 8.55301 15.8944C9.04698 16.1414 9.64766 15.9412 9.89465 15.4472L10.6183 14H13.3822L14.1058 15.4472C14.3528 15.9412 14.9535 16.1414 15.4474 15.8944C15.9414 15.6474 16.1416 15.0468 15.8946 14.5528L12.8946 8.55279ZM12.0002 11.2361L12.3822 12H11.6183L12.0002 11.2361Z" fill="#25282B"/>
<path d="M6.00021 1C6.00021 0.447715 5.5525 0 5.00021 0C4.44793 0 4.00021 0.447715 4.00021 1V2H1.00021C0.447929 2 0.000213622 2.44772 0.000213622 3C0.000213622 3.55228 0.447929 4 1.00021 4H7.67774C7.63315 4.10028 7.58305 4.20641 7.52689 4.31799C7.21831 4.93109 6.72994 5.70204 5.97713 6.5627L4.70732 5.29289C4.3168 4.90237 3.68363 4.90237 3.29311 5.29289C2.90258 5.68342 2.90258 6.31658 3.29311 6.70711L4.55566 7.96966C3.67657 8.7091 2.82714 9.19897 2.15494 9.51489C1.7256 9.71667 1.37035 9.84663 1.12882 9.92473C1.00816 9.96374 0.916224 9.9897 0.85803 10.0051C0.828945 10.0129 0.808331 10.0179 0.796816 10.0207L0.786523 10.0231C0.248703 10.1407 -0.0931848 10.6712 0.0224928 11.2099C0.138439 11.7499 0.670169 12.0937 1.21015 11.9777L1.21165 11.9774L1.21338 11.977L1.21756 11.9761L1.22871 11.9736L1.262 11.9658C1.28899 11.9594 1.32549 11.9503 1.37084 11.9383C1.46151 11.9142 1.58771 11.8783 1.74415 11.8277C2.05682 11.7266 2.49161 11.5665 3.00563 11.325C3.84355 10.9311 4.89675 10.3185 5.97435 9.38835L7.29311 10.7071C7.68363 11.0976 8.3168 11.0976 8.70732 10.7071C9.09784 10.3166 9.09784 9.68342 8.70732 9.29289L7.39411 7.97968C8.30301 6.95777 8.9136 6.01141 9.31336 5.21717C9.78592 4.2783 9.9984 3.48117 10.0002 3.00602C10.0002 3.00402 10.0002 3.00201 10.0002 3C10.0002 2.44772 9.5525 2 9.00021 2H6.00021V1Z" stroke="black" stroke-linecap="round" stroke-linejoin="round"/>
<path fill-rule="evenodd" clip-rule="evenodd" d="M12.8946 8.55279C12.7253 8.214 12.379 8 12.0002 8C11.6214 8 11.2752 8.214 11.1058 8.55279L8.10579 14.5528C7.8588 15.0468 8.05903 15.6474 8.55301 15.8944C9.04698 16.1414 9.64766 15.9412 9.89465 15.4472L10.6183 14H13.3822L14.1058 15.4472C14.3528 15.9412 14.9535 16.1414 15.4474 15.8944C15.9414 15.6474 16.1416 15.0468 15.8946 14.5528L12.8946 8.55279ZM12.0002 11.2361L12.3822 12H11.6183L12.0002 11.2361Z" stroke="black" stroke-linecap="round" stroke-linejoin="round"/>
</g>
<defs>
<filter id="filter0_d_201_4538" x="-4.5" y="-0.5" width="25.0005" height="25.0002" filterUnits="userSpaceOnUse" color-interpolation-filters="sRGB">
<feFlood flood-opacity="0" result="BackgroundImageFix"/>
<feColorMatrix in="SourceAlpha" type="matrix" values="0 0 0 0 0 0 0 0 0 0 0 0 0 0 0 0 0 0 127 0" result="hardAlpha"/>
<feOffset dy="4"/>
<feGaussianBlur stdDeviation="2"/>
<feComposite in2="hardAlpha" operator="out"/>
<feColorMatrix type="matrix" values="0 0 0 0 0 0 0 0 0 0 0 0 0 0 0 0 0 0 0.25 0"/>
<feBlend mode="normal" in2="BackgroundImageFix" result="effect1_dropShadow_201_4538"/>
<feBlend mode="normal" in="SourceGraphic" in2="effect1_dropShadow_201_4538" result="shape"/>
</filter>
</defs>
</svg>
