<svg width="16" height="16" viewBox="0 0 16 16" fill="none" xmlns="http://www.w3.org/2000/svg">
<path fill-rule="evenodd" clip-rule="evenodd" d="M15.4281 4.86603C15.6514 5.2527 15.5913 5.7405 15.2808 6.06138L13.9717 7.41444C13.9904 7.60733 13.9999 7.80267 13.9999 8C13.9999 8.19733 13.9904 8.39268 13.9717 8.58556L15.2808 9.93862C15.5913 10.2595 15.6514 10.7473 15.4281 11.134L14.4281 12.866C14.2049 13.2527 13.7524 13.4445 13.3193 13.3361L11.493 12.8789C11.1766 13.1057 10.837 13.3027 10.4784 13.4655L9.96147 15.2747C9.83881 15.704 9.44642 16 8.99994 16H6.99994C6.55346 16 6.16108 15.704 6.03842 15.2747L5.52151 13.4655C5.16287 13.3027 4.82332 13.1057 4.50695 12.8789L2.68061 13.3361C2.2475 13.4445 1.79498 13.2527 1.57174 12.866L0.571741 11.134C0.348501 10.7473 0.408632 10.2595 0.719089 9.93864L2.02823 8.58557C2.0095 8.39268 1.99994 8.19734 1.99994 8C1.99994 7.80267 2.0095 7.60732 2.02822 7.41443L0.719086 6.06136C0.408629 5.74049 0.348498 5.25268 0.571739 4.86602L1.57174 3.13397C1.79498 2.7473 2.2475 2.55548 2.68061 2.6639L4.50695 3.12111C4.82332 2.89428 5.16288 2.69731 5.52151 2.53446L6.03842 0.725279C6.16108 0.295977 6.55346 -1.95163e-08 6.99994 0L8.99994 8.74228e-08C9.44642 1.06939e-07 9.83881 0.295977 9.96147 0.725279L10.4784 2.53446C10.837 2.69731 11.1766 2.89428 11.493 3.12112L13.3193 2.66392C13.7524 2.55549 14.2049 2.74732 14.4281 3.13398L15.4281 4.86603ZM13.0732 4.78723L11.5042 5.18003C11.1889 5.25896 10.855 5.17976 10.6087 4.96767C10.2329 4.64397 9.79706 4.38949 9.32098 4.223C9.0143 4.11574 8.77884 3.86618 8.68958 3.55378L8.24564 2H7.75425L7.31031 3.55378C7.22105 3.86618 6.98559 4.11574 6.67891 4.223C6.20284 4.38949 5.76701 4.64397 5.39119 4.96766C5.14495 5.17975 4.811 5.25894 4.49574 5.18002L2.92664 4.78721L2.68094 5.21277L3.80498 6.37453C4.0306 6.60772 4.12905 6.93588 4.06906 7.25476C4.02377 7.49547 3.99994 7.74449 3.99994 8C3.99994 8.2555 4.02377 8.50453 4.06906 8.74524C4.12905 9.06412 4.0306 9.39228 3.80498 9.62547L2.68094 10.7872L2.92664 11.2128L4.49574 10.82C4.811 10.7411 5.14495 10.8203 5.39119 11.0323C5.76701 11.356 6.20284 11.6105 6.6789 11.777C6.98559 11.8843 7.22105 12.1338 7.31031 12.4462L7.75425 14H8.24564L8.68958 12.4462C8.77884 12.1338 9.0143 11.8843 9.32098 11.777C9.79706 11.6105 10.2329 11.356 10.6087 11.0323C10.855 10.8202 11.1889 10.741 11.5042 10.82L13.0732 11.2128L13.3189 10.7872L12.1949 9.62546C11.9693 9.39227 11.8708 9.06411 11.9308 8.74523C11.9761 8.50452 11.9999 8.2555 11.9999 8C11.9999 7.7445 11.9761 7.49548 11.9308 7.25477C11.8708 6.93589 11.9693 6.60773 12.1949 6.37454L13.3189 5.21279L13.0732 4.78723Z" fill="#25282B"/>
<path d="M7.99994 10C6.89537 10 5.99994 9.10457 5.99994 8C5.99994 6.89543 6.89537 6 7.99994 6C9.10451 6 9.99994 6.89543 9.99994 8C9.99994 9.10457 9.10451 10 7.99994 10Z" fill="#25282B"/>
</svg>
