<svg width="14" height="16" viewBox="0 0 14 16" fill="none" xmlns="http://www.w3.org/2000/svg">
<path d="M9.00003 14C9.00003 15.1046 8.1046 16 7.00003 16C5.89546 16 5.00003 15.1046 5.00003 14H9.00003Z" fill="#25282B"/>
<path fill-rule="evenodd" clip-rule="evenodd" d="M7.00003 0C5.07411 0 3.77389 0.824866 2.98849 1.9157C2.23981 2.95554 2.00003 4.17387 2.00003 5.00056V8C2.00003 8.69942 1.63477 9.49511 1.16798 10.1953C0.945424 10.5291 0.721406 10.8093 0.553273 11.0055C0.469653 11.103 0.401032 11.1784 0.354911 11.2278C0.331882 11.2525 0.314558 11.2706 0.303888 11.2816L0.292464 11.2934L0.291631 11.2942C0.0066672 11.5802 -0.0783981 12.0096 0.0761497 12.3827C0.230931 12.7564 0.595567 13 1.00003 13H13C13.4045 13 13.7691 12.7564 13.9239 12.3827C14.0786 12.0091 13.9928 11.5788 13.707 11.2928L13.6962 11.2816C13.6855 11.2706 13.6682 11.2525 13.6451 11.2278C13.599 11.1784 13.5304 11.103 13.4468 11.0055C13.2787 10.8093 13.0546 10.5291 12.8321 10.1953C12.3653 9.49511 12 8.69942 12 8V5C12 4.17331 11.7602 2.95554 11.0116 1.9157C10.2262 0.824866 8.92595 0 7.00003 0ZM3.02704 11C3.50841 10.2146 4.00003 9.1446 4.00003 8L4.00003 5C4.00003 4.49336 4.16025 3.71113 4.61156 3.0843C5.02616 2.50847 5.72595 2 7.00003 2C8.27411 2 8.97389 2.50847 9.38849 3.0843C9.83981 3.71113 10 4.49392 10 5.00056V8C10 9.1446 10.4916 10.2146 10.973 11H3.02704Z" fill="#25282B"/>
</svg>
