<svg width="16" height="16" viewBox="0 0 16 16" fill="none" xmlns="http://www.w3.org/2000/svg">
<path fill-rule="evenodd" clip-rule="evenodd" d="M1.88723 5.82888C1.4632 6.15011 1.1211 6.54285 0.853909 6.96696C0.203317 7.99965 0 9.19794 0 10C0 10.5523 0.447715 11 1 11H6C6.55228 11 7 10.5523 7 10C7 9.44772 6.55228 9 6 9H2.13743C2.22449 8.67109 2.35695 8.33326 2.54609 8.03304C2.91164 7.45281 3.48566 7 4.5 7C6.433 7 8 5.433 8 3.5C8 1.567 6.433 0 4.5 0C2.567 0 1 1.567 1 3.5C1 4.39427 1.33538 5.2102 1.88723 5.82888ZM3 3.5C3 2.67157 3.67157 2 4.5 2C5.32843 2 6 2.67157 6 3.5C6 4.32843 5.32843 5 4.5 5C3.67157 5 3 4.32843 3 3.5Z" fill="#25282B"/>
<path fill-rule="evenodd" clip-rule="evenodd" d="M8.88723 10.8289C8.4632 11.1501 8.1211 11.5428 7.85391 11.967C7.20332 12.9996 7 14.1979 7 15C7 15.5523 7.44772 16 8 16H15C15.5523 16 16 15.5523 16 15C16 14.1979 15.7967 12.9996 15.1461 11.967C14.8789 11.5428 14.5368 11.1501 14.1128 10.8289C14.6646 10.2102 15 9.39427 15 8.5C15 6.567 13.433 5 11.5 5C9.567 5 8 6.567 8 8.5C8 9.39427 8.33538 10.2102 8.88723 10.8289ZM10 8.5C10 9.32843 10.6716 10 11.5 10C12.3284 10 13 9.32843 13 8.5C13 7.67157 12.3284 7 11.5 7C10.6716 7 10 7.67157 10 8.5ZM9.54609 13.033C9.91164 12.4528 10.4857 12 11.5 12C12.5143 12 13.0884 12.4528 13.4539 13.033C13.643 13.3333 13.7755 13.6711 13.8626 14H9.13743C9.22449 13.6711 9.35695 13.3333 9.54609 13.033Z" fill="#25282B"/>
</svg>
